<svg width="22" height="15" viewBox="0 0 22 15" fill="none" xmlns="http://www.w3.org/2000/svg">
<g clip-path="url(#clip0_3_298)">
<path d="M0 0H22V15.0002H0V0Z" fill="white"/>
<path d="M12.375 -0.00012207H9.625V6.0936H0V8.90611H9.625V14.9998H12.375V8.90611H22V6.0936H12.375V-0.00012207Z" fill="#D80027"/>
<path d="M16.9204 10.1085L22 12.9947V10.1085H16.9204ZM13.3913 10.1085L22 14.9998V13.6167L15.8257 10.1085H13.3913ZM19.7069 14.9998L13.3913 11.4111V14.9998H19.7069Z" fill="#0052B4"/>
<path d="M13.3913 10.1085L22 14.9998V13.6167L15.8257 10.1085H13.3913Z" fill="white"/>
<path d="M13.3913 10.1085L22 14.9998V13.6167L15.8257 10.1085H13.3913Z" fill="#D80027"/>
<path d="M3.88184 10.1084L0 12.3141V10.1084H3.88184ZM8.6087 10.7304V14.9998H1.09532L8.6087 10.7304Z" fill="#0052B4"/>
<path d="M6.17431 10.1085L0 13.6167V14.9998L8.6087 10.1085H6.17431Z" fill="#D80027"/>
<path d="M5.07955 4.89117L0 2.00502V4.89117H5.07955ZM8.6087 4.89117L0 -0.00012207V1.38301L6.17431 4.89117H8.6087ZM2.29307 -0.00012207L8.6087 3.58863V-0.00012207H2.29307Z" fill="#0052B4"/>
<path d="M8.6087 4.89117L0 -0.00012207V1.38301L6.17431 4.89117H8.6087Z" fill="white"/>
<path d="M8.6087 4.89117L0 -0.00012207V1.38301L6.17431 4.89117H8.6087Z" fill="#D80027"/>
<path d="M18.1182 4.89125L22 2.68563V4.89125H18.1182ZM13.3913 4.26924V-9.15527e-05H20.9047L13.3913 4.26924Z" fill="#0052B4"/>
<path d="M15.8257 4.89117L22 1.38301V-0.00012207L13.3913 4.89117H15.8257Z" fill="#D80027"/>
</g>
<defs>
<clipPath id="clip0_3_298">
<rect width="22" height="15" fill="white"/>
</clipPath>
</defs>
</svg>
